<svg id="logosandtypes_com" xmlns="http://www.w3.org/2000/svg" viewBox="0 0 150 150.2"><path d="M0 .2h150v150H0V.2z" fill="none"/><linearGradient id="a" gradientUnits="userSpaceOnUse" x1="29.1096" y1="60.6709" x2="141.0347" y2="60.6709" gradientTransform="matrix(1 0 0 -1 -18.57 133.74)"><stop offset="0" stop-color="#ec1c23"/><stop offset="1" stop-color="#a13229"/></linearGradient><path d="M76.2 11.8c-35.2.6-64.3 25.2-65.6 59-1.3 33.8 25.1 62.2 58.9 63.5 16.5.6 32.6-5.4 44.6-16.9 11.1-10.6 10.7-29.3 1.8-20.8-10.3 9.7-24 14.9-38.2 14.3-28.3-1-50.4-23.9-49.3-51 1-25.2 25.9-45.1 48.3-46.4l.6-1.8h-1.1" fill="url(#a)"/><path d="M81.1 13.6c28.4 1.7 51.8 25.9-30.9 50.1 21.1 4.1 36.7 14 36.7 14 70.8-36.1 30.5-66.1-9.5-66l-.6 1.8c1.4 0 2.9 0 4.3.1" fill="#ffd300"/><linearGradient id="b" gradientUnits="userSpaceOnUse" x1="113.6522" y1="26.4116" x2="113.6522" y2="82.7803" gradientTransform="matrix(1 0 0 -1 -18.57 133.74)"><stop offset=".75" stop-color="#ffd300"/><stop offset=".84" stop-color="#f4cc2d"/><stop offset=".91" stop-color="#eac139"/><stop offset=".96" stop-color="#dcb248"/><stop offset="1" stop-color="#cea353"/></linearGradient><path d="M49.7 63.7c18.7 2.3 58.2 23.5 61.8 43.6 0-.3-1.2-8.3-1.2-8.3-2.9-19 1.1-37.5 30.2-39-13.9-6.7-26.4-9-37.5-9-22.4 0-39.6 9.7-53.3 12.7" fill="url(#b)"/><linearGradient id="c" gradientUnits="userSpaceOnUse" x1="144.4807" y1="6.7328" x2="112.1992" y2="39.0144" gradientTransform="matrix(1 0 0 -1 -18.57 133.74)"><stop offset="0" stop-color="#ffd300"/><stop offset="1" stop-color="#cea353"/></linearGradient><path d="M111 105.6c.3 1 2.1 8.5-2 16.3-5.1 8.8-13.5 15.4-29.6 19.7 41.3 1.9 88.6-37.8 46.1-76-18 7.4-16.2 28-14.5 40" fill="url(#c)"/></svg>